name C:\Users\u0101727\Documents\MyRepositories\upper-imu-dc\Results\main_tracking\Case_45\FLX01_orientations_groundFrame.mot
datacolumns 13
datarows 25
range 2.00600000 2.15000000
endheader 
time	radius_imu_[0][0]	radius_imu_[0][1]	radius_imu_[0][2]	radius_imu_[1][0]	radius_imu_[1][1]	radius_imu_[1][2]	radius_imu_[2][0]	radius_imu_[2][1]	radius_imu_[2][2]	radius_imu_x	radius_imu_y	radius_imu_z	
          2.00600000	          0.41661138	         -0.87374799	         -0.25099684	         -0.36270412	         -0.41292888	          0.83542532	         -0.83359503	         -0.25701011	         -0.48894287	         -2.10030873	         -0.25370992	          1.12587260	
          2.01200000	          0.42059942	         -0.87051285	         -0.25554551	         -0.36358303	         -0.41979574	          0.83161224	         -0.83120606	         -0.25686361	         -0.49306954	         -2.10598479	         -0.25841191	          1.12070899	
          2.01800000	          0.42466012	         -0.86721035	         -0.26001921	         -0.36446206	         -0.42665293	          0.82772863	         -0.82875280	         -0.25673620	         -0.49724775	         -2.11175804	         -0.26304209	          1.11543452	
          2.02400000	          0.42878695	         -0.86384375	         -0.26441582	         -0.36533588	         -0.43349450	          0.82377923	         -0.82623934	         -0.25662519	         -0.50146990	         -2.11761977	         -0.26759813	          1.11005617	
          2.03000000	          0.43297317	         -0.86041645	         -0.26873365	         -0.36619882	         -0.44031450	          0.81976922	         -0.82367024	         -0.25652813	         -0.50572785	         -2.12356051	         -0.27207808	          1.10458123	
          2.03600000	          0.43721188	         -0.85693194	         -0.27297146	         -0.36704490	         -0.44710709	          0.81570417	         -0.82105043	         -0.25644277	         -0.51001303	         -2.12957011	         -0.27648045	          1.09901724	
          2.04200000	          0.44149606	         -0.85339384	         -0.27712846	         -0.36786798	         -0.45386658	          0.81158997	         -0.81838522	         -0.25636709	         -0.51431658	         -2.13563794	         -0.28080422	          1.09337195	
          2.04800000	          0.44581864	         -0.84980578	         -0.28120435	         -0.36866184	         -0.46058750	          0.80743272	         -0.81568020	         -0.25629924	         -0.51862945	         -2.14175300	         -0.28504887	          1.08765323	
          2.05400000	          0.45017251	         -0.84617142	         -0.28519930	         -0.36942028	         -0.46726463	          0.80323871	         -0.81294118	         -0.25623759	         -0.52294257	         -2.14790409	         -0.28921436	          1.08186905	
          2.06000000	          0.45455066	         -0.84249441	         -0.28911393	         -0.37013723	         -0.47389308	          0.79901425	         -0.81017413	         -0.25618063	         -0.52724696	         -2.15408002	         -0.29330111	          1.07602734	
          2.06600000	          0.45894618	         -0.83877835	         -0.29294930	         -0.37080691	         -0.48046835	          0.79476562	         -0.80738506	         -0.25612702	         -0.53153392	         -2.16026977	         -0.29731002	          1.07013595	
          2.07200000	          0.46335236	         -0.83502672	         -0.29670686	         -0.37142391	         -0.48698634	          0.79049895	         -0.80457993	         -0.25607553	         -0.53579516	         -2.16646271	         -0.30124237	          1.06420253	
          2.07800000	          0.46776283	         -0.83124290	         -0.30038837	         -0.37198332	         -0.49344341	          0.78622008	         -0.80176452	         -0.25602506	         -0.54002298	         -2.17264883	         -0.30509980	          1.05823444	
          2.08400000	          0.47217157	         -0.82743008	         -0.30399584	         -0.37248089	         -0.49983644	          0.78193447	         -0.79894430	         -0.25597459	         -0.54421045	         -2.17881894	         -0.30888420	          1.05223862	
          2.09000000	          0.47657308	         -0.82359124	         -0.30753143	         -0.37291309	         -0.50616282	          0.77764711	         -0.79612432	         -0.25592318	         -0.54835153	         -2.18496487	         -0.31259764	          1.04622147	
          2.09600000	          0.48096245	         -0.81972908	         -0.31099737	         -0.37327725	         -0.51242051	          0.77336235	         -0.79330903	         -0.25587001	         -0.55244124	         -2.19107968	         -0.31624226	          1.04018878	
          2.10200000	          0.48533546	         -0.81584604	         -0.31439583	         -0.37357159	         -0.51860802	          0.76908386	         -0.79050222	         -0.25581432	         -0.55647576	         -2.19715782	         -0.31982015	          1.03414554	
          2.10800000	          0.48968865	         -0.81194420	         -0.31772887	         -0.37379530	         -0.52472446	          0.76481457	         -0.78770686	         -0.25575546	         -0.56045254	         -2.20319521	         -0.32333327	          1.02809593	
          2.11400000	          0.49401940	         -0.80802533	         -0.32099827	         -0.37394852	         -0.53076946	          0.76055657	         -0.78492505	         -0.25569287	         -0.56437028	         -2.20918938	         -0.32678335	          1.02204318	
          2.12000000	          0.49832595	         -0.80409081	         -0.32420553	         -0.37403233	         -0.53674320	          0.75631115	         -0.78215795	         -0.25562612	         -0.56822902	         -2.21513945	         -0.33017177	          1.01598958	
          2.12600000	          0.50260739	         -0.80014164	         -0.32735175	         -0.37404870	         -0.54264637	          0.75207878	         -0.77940578	         -0.25555486	         -0.57203002	         -2.22104606	         -0.33349954	          1.00993646	
          2.13200000	          0.50686369	         -0.79617848	         -0.33043764	         -0.37400038	         -0.54848007	          0.74785916	         -0.77666782	         -0.25547885	         -0.57577569	         -2.22691136	         -0.33676722	          1.00388417	
          2.13800000	          0.51109558	         -0.79220164	         -0.33346345	         -0.37389078	         -0.55424583	          0.74365129	         -0.77394249	         -0.25539798	         -0.57946949	         -2.23273876	         -0.33997492	          0.99783218	
          2.14400000	          0.51530453	         -0.78821110	         -0.33642904	         -0.37372381	         -0.55994546	          0.73945357	         -0.77122743	         -0.25531223	         -0.58311569	         -2.23853279	         -0.34312232	          0.99177918	
          2.15000000	          0.51949259	         -0.78420657	         -0.33933390	         -0.37350374	         -0.56558107	          0.73526391	         -0.76851962	         -0.25522167	         -0.58671926	         -2.24429884	         -0.34620869	          0.98572311	
